<svg width="20" height="20" viewBox="0 0 20 20" fill="none" xmlns="http://www.w3.org/2000/svg">
<path fill-rule="evenodd" clip-rule="evenodd" d="M14.3591 0C17.733 0 20 2.36837 20 5.89302V14.107C20 17.6316 17.733 20 14.3591 20H5.64093C2.26698 20 0 17.6316 0 14.107V5.89302C0 2.36837 2.26698 0 5.64093 0H14.3591ZM14.3591 1.39535H5.64093C3.06233 1.39535 1.39535 3.16 1.39535 5.89302V14.107C1.39535 16.84 3.06233 18.6047 5.64093 18.6047H14.3591C16.9386 18.6047 18.6047 16.84 18.6047 14.107V5.89302C18.6047 3.16 16.9386 1.39535 14.3591 1.39535ZM5.69405 7.63023C6.07916 7.63023 6.39172 7.94279 6.39172 8.32791V14.7093C6.39172 15.0944 6.07916 15.407 5.69405 15.407C5.30893 15.407 4.99637 15.0944 4.99637 14.7093V8.32791C4.99637 7.94279 5.30893 7.63023 5.69405 7.63023ZM10.0354 4.57535C10.4206 4.57535 10.7331 4.88791 10.7331 5.27302V14.7084C10.7331 15.0935 10.4206 15.406 10.0354 15.406C9.65033 15.406 9.33777 15.0935 9.33777 14.7084V5.27302C9.33777 4.88791 9.65033 4.57535 10.0354 4.57535ZM14.3055 11.0023C14.6906 11.0023 15.0032 11.3149 15.0032 11.7V14.7084C15.0032 15.0935 14.6906 15.406 14.3055 15.406C13.9204 15.406 13.6078 15.0935 13.6078 14.7084V11.7C13.6078 11.3149 13.9204 11.0023 14.3055 11.0023Z" fill="#333342"/>
</svg>
