<svg width="20" height="20" viewBox="0 0 20 20" fill="none" xmlns="http://www.w3.org/2000/svg">
<path fill-rule="evenodd" clip-rule="evenodd" d="M13.8142 18.6406H6.46091C3.59341 18.6406 1.66675 16.6281 1.66675 13.6331V6.70476C1.66675 3.70977 3.59341 1.69727 6.46091 1.69727H9.57675C9.92175 1.69727 10.2017 1.97727 10.2017 2.32227C10.2017 2.66727 9.92175 2.94727 9.57675 2.94727H6.46091C4.30758 2.94727 2.91675 4.42227 2.91675 6.70476V13.6331C2.91675 15.9156 4.30758 17.3906 6.46091 17.3906H13.8142C15.9676 17.3906 17.3592 15.9156 17.3592 13.6331V10.2764C17.3592 9.93143 17.6392 9.65143 17.9842 9.65143C18.3292 9.65143 18.6092 9.93143 18.6092 10.2764V13.6331C18.6092 16.6281 16.6817 18.6406 13.8142 18.6406Z" fill="#333342"/>
<path fill-rule="evenodd" clip-rule="evenodd" d="M7.38974 12.8569H9.87058C10.1872 12.8569 10.4839 12.7344 10.7081 12.5103L16.9656 6.25276C17.2222 5.9961 17.3639 5.65443 17.3639 5.2911C17.3639 4.92693 17.2222 4.58443 16.9656 4.32776L15.9514 3.3136C15.4206 2.78443 14.5572 2.78443 14.0256 3.3136L7.79808 9.5411C7.58224 9.75693 7.45974 10.0436 7.45224 10.3478L7.38974 12.8569ZM9.87058 14.1069H6.74891C6.58058 14.1069 6.41891 14.0386 6.30141 13.9178C6.18391 13.7978 6.11974 13.6353 6.12391 13.4661L6.20224 10.3169C6.21808 9.69026 6.47058 9.1011 6.91391 8.65693H6.91474L13.1422 2.42943C14.1606 1.41276 15.8164 1.41276 16.8347 2.42943L17.8489 3.4436C18.3431 3.93693 18.6147 4.59276 18.6139 5.2911C18.6139 5.98943 18.3422 6.64443 17.8489 7.13693L11.5914 13.3944C11.1322 13.8536 10.5206 14.1069 9.87058 14.1069Z" fill="#333342"/>
<path fill-rule="evenodd" clip-rule="evenodd" d="M16.4425 8.26385C16.2825 8.26385 16.1225 8.20301 16.0008 8.08051L12.1958 4.27551C11.9517 4.03135 11.9517 3.63551 12.1958 3.39135C12.44 3.14718 12.835 3.14718 13.0792 3.39135L16.8842 7.19718C17.1283 7.44135 17.1283 7.83635 16.8842 8.08051C16.7625 8.20301 16.6025 8.26385 16.4425 8.26385Z" fill="#333342"/>
</svg>
