<svg width="20" height="20" viewBox="0 0 20 20" fill="none" xmlns="http://www.w3.org/2000/svg">
<path fill-rule="evenodd" clip-rule="evenodd" d="M13.3901 5.368C13.3901 5.782 13.0627 6.118 12.6594 6.118C12.256 6.118 11.9287 5.782 11.9287 5.368V4.435C11.9287 2.816 10.6466 1.5 9.07025 1.5L4.32079 1.5C2.74348 1.5 1.46137 2.816 1.46137 4.435V15.565C1.46137 17.183 2.74348 18.5 4.32079 18.5H9.07902C10.6505 18.5 11.9287 17.188 11.9287 15.576V14.633C11.9287 14.219 12.256 13.883 12.6594 13.883C13.0627 13.883 13.3901 14.219 13.3901 14.633V15.576C13.3901 18.015 11.4562 20 9.07902 20H4.32079C1.93778 20 0 18.01 0 15.565V4.435C0 1.99 1.93778 0 4.32079 0L9.07025 0C11.4523 0 13.3901 1.99 13.3901 4.435V5.368ZM19.7932 10.5306L16.9406 13.4466C16.6542 13.7386 16.1924 13.7376 15.9079 13.4446C15.6234 13.1506 15.6234 12.6766 15.9099 12.3846L17.5088 10.749L6.81691 10.7496V9.2496L17.5088 9.249L15.9099 7.6156C15.7657 7.4696 15.6946 7.2766 15.6946 7.0846C15.6946 6.8936 15.7657 6.7016 15.9079 6.5556C16.1924 6.2626 16.6542 6.2606 16.9406 6.5536L19.7932 9.4686C20.0689 9.7496 20.0689 10.2496 19.7932 10.5306Z" fill="#333342"/>
</svg>
