<svg width="19" height="23" viewBox="0 0 19 23" fill="none" xmlns="http://www.w3.org/2000/svg">
<path fill-rule="evenodd" clip-rule="evenodd" d="M7.52345 19.6255C8.05553 20.2182 8.73862 20.5438 9.44738 20.5438H9.44841C10.1603 20.5438 10.8464 20.2182 11.3795 19.6245C11.6651 19.3092 12.152 19.2835 12.4673 19.568C12.7837 19.8525 12.8094 20.3405 12.5248 20.6558C11.6949 21.5772 10.603 22.0846 9.44841 22.0846H9.44635C8.29487 22.0836 7.20502 21.5762 6.37813 20.6548C6.0936 20.3394 6.11928 19.8515 6.43565 19.568C6.75203 19.2824 7.23892 19.3081 7.52345 19.6255ZM9.49853 0C14.0644 0 17.1316 3.55614 17.1316 6.87705C17.1316 8.58527 17.5661 9.30944 18.0273 10.0778C18.4834 10.8358 19.0001 11.6966 19.0001 13.3237C18.6416 17.4808 14.3017 17.8197 9.49853 17.8197C4.69538 17.8197 0.35447 17.4808 7.46314e-05 13.3894C-0.00299323 11.6966 0.513684 10.8358 0.969758 10.0778L1.13076 9.80676C1.52719 9.12543 1.86547 8.3843 1.86547 6.87705C1.86547 3.55614 4.93266 0 9.49853 0ZM9.49853 1.54079C5.9085 1.54079 3.40626 4.35324 3.40626 6.87705C3.40626 9.01258 2.81357 9.99971 2.2897 10.8708C1.86958 11.5703 1.53779 12.1229 1.53779 13.3237C1.70934 15.261 2.98819 16.2789 9.49853 16.2789C15.9729 16.2789 17.2918 15.2158 17.4624 13.2569C17.4593 12.1229 17.1275 11.5703 16.7074 10.8708C16.1835 9.99971 15.5908 9.01258 15.5908 6.87705C15.5908 4.35324 13.0886 1.54079 9.49853 1.54079Z" fill="black"/>
</svg>
