<svg width="20" height="20" viewBox="0 0 20 20" fill="none" xmlns="http://www.w3.org/2000/svg">
<path fill-rule="evenodd" clip-rule="evenodd" d="M12.8711 0C12.9215 0 12.9709 0.00364063 13.019 0.0106319L13.1795 0.0114772C13.4188 0.0114772 13.6475 0.0950396 13.814 0.243036L19.7546 5.55579C19.9117 5.69573 19.9999 5.884 19.9999 6.07831V15.3064C20.0208 17.8324 17.729 19.8963 14.7816 19.999L5.37642 20H5.24858C2.37512 19.9443 0.0705625 17.9494 0.000354007 15.5069L0 4.52082C0.0680262 2.02301 2.47123 0.0114772 5.36 0.0114772L12.7233 0.0106319C12.7714 0.00364063 12.8208 0 12.8711 0ZM11.9914 1.52124L5.36234 1.52164C3.4189 1.52164 1.80504 2.87273 1.7593 4.53895V15.3064C1.7159 17.031 3.29927 18.4516 5.28845 18.4898H14.7464C16.704 18.4204 18.2545 17.024 18.2405 15.3125L18.2404 7.03031L15.8831 7.03132C13.7367 7.02629 11.9915 5.52418 11.9915 3.68379L11.9914 1.52124ZM12.6521 12.6935C13.1376 12.6935 13.5317 13.0318 13.5317 13.4486C13.5317 13.8654 13.1376 14.2037 12.6521 14.2037H6.31858C5.83301 14.2037 5.43893 13.8654 5.43893 13.4486C5.43893 13.0318 5.83301 12.6935 6.31858 12.6935H12.6521ZM10.2537 8.9161C10.7392 8.9161 11.1333 9.25438 11.1333 9.67119C11.1333 10.088 10.7392 10.4263 10.2537 10.4263H6.31753C5.83196 10.4263 5.43788 10.088 5.43788 9.67119C5.43788 9.25438 5.83196 8.9161 6.31753 8.9161H10.2537ZM13.7507 2.36794L13.7508 3.68379C13.7508 4.69459 14.709 5.51814 15.8854 5.52116L17.2763 5.52015L13.7507 2.36794Z" fill="#4220AE"/>
</svg>
