<svg width="24" height="24" viewBox="0 0 24 24" fill="none" xmlns="http://www.w3.org/2000/svg">
<path fill-rule="evenodd" clip-rule="evenodd" d="M10.9985 3.50024C6.97315 3.50024 3.70996 6.76343 3.70996 10.7888C3.70996 14.8141 6.97315 18.0773 10.9985 18.0773C15.0238 18.0773 18.287 14.8141 18.287 10.7888C18.287 6.76343 15.0238 3.50024 10.9985 3.50024ZM2.20996 10.7888C2.20996 5.93501 6.14472 2.00024 10.9985 2.00024C15.8523 2.00024 19.787 5.93501 19.787 10.7888C19.787 15.6426 15.8523 19.5773 10.9985 19.5773C6.14472 19.5773 2.20996 15.6426 2.20996 10.7888Z" fill="black"/>
<path fill-rule="evenodd" clip-rule="evenodd" d="M16.4859 15.6477L22.1014 21.2486L21.0421 22.3106L15.4266 16.7097L16.4859 15.6477Z" fill="black"/>
</svg>
