<svg aria-hidden="true" style="position: absolute; width: 0; height: 0; overflow: hidden;" fill="none" xmlns="http://www.w3.org/2000/svg" xmlns:xlink="http://www.w3.org/1999/xlink">

<symbol id="icon-call" viewBox="0 0 24 24" >
<path fill-rule="evenodd" clip-rule="evenodd" d="M3.28872 4.08785L3.36127 4.01204C5.28869 2.08444 6.54385 1.57351 7.88307 2.34362C8.2683 2.56515 8.62945 2.87523 9.12054 3.37401L10.6269 4.93603C11.4589 5.84393 11.6481 6.71478 11.3772 7.73465L11.3398 7.86967L11.2984 8.00392L11.097 8.59474C10.666 9.91972 10.846 10.6673 12.3795 12.2004C13.9742 13.7947 14.7186 13.9251 16.1457 13.4264L16.4001 13.338L16.7077 13.2381L16.8423 13.2007C17.9263 12.9115 18.842 13.1423 19.8132 14.1128L21.0269 15.2852L21.3842 15.6366C21.7803 16.0405 22.0421 16.3606 22.2355 16.6989C23.0008 18.0377 22.4893 19.2921 20.5063 21.2677L20.3177 21.4589C20.0216 21.7442 19.745 21.9486 19.3386 22.1416C18.6565 22.4655 17.8506 22.5876 16.9142 22.4573C14.6067 22.1364 11.6802 20.3158 7.97188 16.6085C7.67002 16.3067 7.3809 16.0107 7.10425 15.7205L6.56748 15.1476C1.53762 9.68285 1.09389 6.32588 3.15518 4.2205L3.28872 4.08785ZM7.90641 4.28093C7.58062 3.95973 7.34396 3.76394 7.13532 3.64396C6.67379 3.37856 6.1755 3.49074 5.25329 4.28448L4.96353 4.54334C4.91299 4.59 4.86129 4.63843 4.80838 4.68868L4.47611 5.01231L4.44617 5.04972L4.22091 5.27603C3.67656 5.83204 3.41871 6.51064 3.6409 7.67767C4.00551 9.59269 5.67442 12.1905 9.0324 15.5477C12.5313 19.0456 15.1972 20.7041 17.1208 20.9716C18.2422 21.1276 18.8142 20.856 19.3975 20.2584L19.8424 19.8095C20.051 19.5912 20.2292 19.3933 20.3797 19.2126L20.585 18.9539C21.1097 18.2551 21.1576 17.8358 20.9332 17.4433C20.8479 17.2939 20.7237 17.1302 20.5429 16.93L20.2977 16.671L20.1525 16.5258L18.6213 15.0472C18.1096 14.5753 17.7599 14.5084 17.229 14.65L17.0757 14.6941L16.4414 14.9094C14.6013 15.5037 13.2738 15.2155 11.3189 13.2612C9.29429 11.237 9.05685 9.88537 9.73522 7.93917L9.77874 7.81411L9.89908 7.45153L9.95823 7.22043C10.0631 6.71746 9.94337 6.36677 9.40269 5.82601C9.38043 5.80375 9.35555 5.77866 9.32847 5.7512L7.90641 4.28093Z" fill="white"/>
</symbol>

<symbol id="icon-message" viewBox="0 0 24 24" >
<path fill-rule="evenodd" clip-rule="evenodd" d="M11.7769 13.4647C11.1079 13.4647 10.4409 13.2437 9.88286 12.8017L5.39786 9.18574C5.07486 8.92574 5.02486 8.45274 5.28386 8.13074C5.54486 7.80974 6.01686 7.75874 6.33886 8.01774L10.8199 11.6297C11.3829 12.0757 12.1759 12.0757 12.7429 11.6257L17.1789 8.01974C17.5009 7.75674 17.9729 7.80674 18.2349 8.12874C18.4959 8.44974 18.4469 8.92174 18.1259 9.18374L13.6819 12.7957C13.1199 13.2417 12.4479 13.4647 11.7769 13.4647Z" fill="white"/>
<mask id="mask0_1_333" style="mask-type:luminance" maskUnits="userSpaceOnUse" x="1" y="2" width="22" height="20">
<path fill-rule="evenodd" clip-rule="evenodd" d="M1 2H22.4999V21.5H1V2Z" fill="white"/>
</mask>
<g mask="url(#mask0_1_333)">
<path fill-rule="evenodd" clip-rule="evenodd" d="M6.83888 20H16.6589C16.6609 19.998 16.6689 20 16.6749 20C17.8159 20 18.8279 19.592 19.6039 18.817C20.5049 17.92 20.9999 16.631 20.9999 15.188V8.32C20.9999 5.527 19.1739 3.5 16.6589 3.5H6.84088C4.32588 3.5 2.49988 5.527 2.49988 8.32V15.188C2.49988 16.631 2.99588 17.92 3.89588 18.817C4.67188 19.592 5.68488 20 6.82488 20H6.83888ZM6.82188 21.5C5.27888 21.5 3.90088 20.94 2.83688 19.88C1.65188 18.698 0.999878 17.032 0.999878 15.188V8.32C0.999878 4.717 3.51088 2 6.84088 2H16.6589C19.9889 2 22.4999 4.717 22.4999 8.32V15.188C22.4999 17.032 21.8479 18.698 20.6629 19.88C19.5999 20.939 18.2209 21.5 16.6749 21.5H16.6589H6.84088H6.82188Z" fill="white"/>
</g>
</symbol>

<symbol id="icon-location" viewBox="0 0 24 24" >
<path fill-rule="evenodd" clip-rule="evenodd" d="M8.25049 6.5C7.28549 6.5 6.50049 7.285 6.50049 8.251C6.50049 9.216 7.28549 10 8.25049 10C9.21549 10 10.0005 9.216 10.0005 8.251C10.0005 7.285 9.21549 6.5 8.25049 6.5ZM8.25049 11.5C6.45849 11.5 5.00049 10.043 5.00049 8.251C5.00049 6.458 6.45849 5 8.25049 5C10.0425 5 11.5005 6.458 11.5005 8.251C11.5005 10.043 10.0425 11.5 8.25049 11.5Z" fill="white"/>
<mask id="mask0_660_24" style="mask-type:luminance" maskUnits="userSpaceOnUse" x="0" y="0" width="17" height="20">
<path fill-rule="evenodd" clip-rule="evenodd" d="M0 0H16.4995V19.5H0V0Z" fill="white"/>
</mask>
<g mask="url(#mask0_660_24)">
<path fill-rule="evenodd" clip-rule="evenodd" d="M8.24951 1.5C4.52751 1.5 1.49951 4.557 1.49951 8.313C1.49951 13.092 7.12351 17.748 8.24951 17.996C9.37551 17.747 14.9995 13.091 14.9995 8.313C14.9995 4.557 11.9715 1.5 8.24951 1.5ZM8.24951 19.5C6.45551 19.5 -0.000488281 13.948 -0.000488281 8.313C-0.000488281 3.729 3.70051 0 8.24951 0C12.7985 0 16.4995 3.729 16.4995 8.313C16.4995 13.948 10.0435 19.5 8.24951 19.5Z" fill="white"/>
</g>
</symbol>

<symbol id="icon-send" viewBox="0 0 24 24" >
<path d="M15.8325 8.17463L10.109 13.9592L3.59944 9.88767C2.66675 9.30414 2.86077 7.88744 3.91572 7.57893L19.3712 3.05277C20.3373 2.76963 21.2326 3.67283 20.9456 4.642L16.3731 20.0868C16.0598 21.1432 14.6512 21.332 14.0732 20.3953L10.106 13.9602" stroke="white" stroke-width="1.5" stroke-linecap="round" stroke-linejoin="round"/>
</symbol>

<symbol id="icon-arrow-right" viewBox="0 0 17 15" >
<path d="M0 7.72571C0 7.34601 0.282154 7.03222 0.648229 6.98255L0.75 6.97571L15.75 6.97571C16.1642 6.97571 16.5 7.31149 16.5 7.72571C16.5 8.1054 16.2178 8.4192 15.8518 8.46886L15.75 8.47571L0.75 8.47571C0.335786 8.47571 0 8.13992 0 7.72571Z" fill="white"/>
<path d="M9.17101 2.23278C8.87749 1.94051 8.87646 1.46564 9.16872 1.17212C9.43442 0.905279 9.85103 0.880177 10.1451 1.0974L10.2294 1.16983L16.2794 7.19383C16.547 7.46032 16.5714 7.87843 16.3524 8.17251L16.2794 8.25673L10.2294 14.2817C9.93593 14.574 9.46105 14.573 9.16877 14.2795C8.90305 14.0127 8.87971 13.596 9.09817 13.3028L9.17096 13.2189L14.687 7.72501L9.17101 2.23278Z" fill="white"/>
</symbol>

<symbol id="icon-search" viewBox="0 0 24 24" >
<path fill-rule="evenodd" clip-rule="evenodd" d="M10.9985 3.50024C6.97315 3.50024 3.70996 6.76343 3.70996 10.7888C3.70996 14.8141 6.97315 18.0773 10.9985 18.0773C15.0238 18.0773 18.287 14.8141 18.287 10.7888C18.287 6.76343 15.0238 3.50024 10.9985 3.50024ZM2.20996 10.7888C2.20996 5.93501 6.14472 2.00024 10.9985 2.00024C15.8523 2.00024 19.787 5.93501 19.787 10.7888C19.787 15.6426 15.8523 19.5773 10.9985 19.5773C6.14472 19.5773 2.20996 15.6426 2.20996 10.7888Z" fill="black"/>
<path fill-rule="evenodd" clip-rule="evenodd" d="M16.4859 15.6477L22.1014 21.2486L21.0421 22.3106L15.4266 16.7097L16.4859 15.6477Z" fill="black"/>
</symbol>

<symbol id="icon-edit-square" viewBox="0 0 20 20" >
<path fill-rule="evenodd" clip-rule="evenodd" d="M13.8142 18.6406H6.46091C3.59341 18.6406 1.66675 16.6281 1.66675 13.6331V6.70476C1.66675 3.70977 3.59341 1.69727 6.46091 1.69727H9.57675C9.92175 1.69727 10.2017 1.97727 10.2017 2.32227C10.2017 2.66727 9.92175 2.94727 9.57675 2.94727H6.46091C4.30758 2.94727 2.91675 4.42227 2.91675 6.70476V13.6331C2.91675 15.9156 4.30758 17.3906 6.46091 17.3906H13.8142C15.9676 17.3906 17.3592 15.9156 17.3592 13.6331V10.2764C17.3592 9.93143 17.6392 9.65143 17.9842 9.65143C18.3292 9.65143 18.6092 9.93143 18.6092 10.2764V13.6331C18.6092 16.6281 16.6817 18.6406 13.8142 18.6406Z" fill="#333342"/>
<path fill-rule="evenodd" clip-rule="evenodd" d="M7.38974 12.8569H9.87058C10.1872 12.8569 10.4839 12.7344 10.7081 12.5103L16.9656 6.25276C17.2222 5.9961 17.3639 5.65443 17.3639 5.2911C17.3639 4.92693 17.2222 4.58443 16.9656 4.32776L15.9514 3.3136C15.4206 2.78443 14.5572 2.78443 14.0256 3.3136L7.79808 9.5411C7.58224 9.75693 7.45974 10.0436 7.45224 10.3478L7.38974 12.8569ZM9.87058 14.1069H6.74891C6.58058 14.1069 6.41891 14.0386 6.30141 13.9178C6.18391 13.7978 6.11974 13.6353 6.12391 13.4661L6.20224 10.3169C6.21808 9.69026 6.47058 9.1011 6.91391 8.65693H6.91474L13.1422 2.42943C14.1606 1.41276 15.8164 1.41276 16.8347 2.42943L17.8489 3.4436C18.3431 3.93693 18.6147 4.59276 18.6139 5.2911C18.6139 5.98943 18.3422 6.64443 17.8489 7.13693L11.5914 13.3944C11.1322 13.8536 10.5206 14.1069 9.87058 14.1069Z" fill="#333342"/>
<path fill-rule="evenodd" clip-rule="evenodd" d="M16.4425 8.26385C16.2825 8.26385 16.1225 8.20301 16.0008 8.08051L12.1958 4.27551C11.9517 4.03135 11.9517 3.63551 12.1958 3.39135C12.44 3.14718 12.835 3.14718 13.0792 3.39135L16.8842 7.19718C17.1283 7.44135 17.1283 7.83635 16.8842 8.08051C16.7625 8.20301 16.6025 8.26385 16.4425 8.26385Z" fill="#333342"/>
</symbol>

<symbol id="icon-paper" viewBox="0 0 20 20" >
<path fill-rule="evenodd" clip-rule="evenodd" d="M12.8711 0C12.9215 0 12.9709 0.00364063 13.019 0.0106319L13.1795 0.0114772C13.4188 0.0114772 13.6475 0.0950396 13.814 0.243036L19.7546 5.55579C19.9117 5.69573 19.9999 5.884 19.9999 6.07831V15.3064C20.0208 17.8324 17.729 19.8963 14.7816 19.999L5.37642 20H5.24858C2.37512 19.9443 0.0705625 17.9494 0.000354007 15.5069L0 4.52082C0.0680262 2.02301 2.47123 0.0114772 5.36 0.0114772L12.7233 0.0106319C12.7714 0.00364063 12.8208 0 12.8711 0ZM11.9914 1.52124L5.36234 1.52164C3.4189 1.52164 1.80504 2.87273 1.7593 4.53895V15.3064C1.7159 17.031 3.29927 18.4516 5.28845 18.4898H14.7464C16.704 18.4204 18.2545 17.024 18.2405 15.3125L18.2404 7.03031L15.8831 7.03132C13.7367 7.02629 11.9915 5.52418 11.9915 3.68379L11.9914 1.52124ZM12.6521 12.6935C13.1376 12.6935 13.5317 13.0318 13.5317 13.4486C13.5317 13.8654 13.1376 14.2037 12.6521 14.2037H6.31858C5.83301 14.2037 5.43893 13.8654 5.43893 13.4486C5.43893 13.0318 5.83301 12.6935 6.31858 12.6935H12.6521ZM10.2537 8.9161C10.7392 8.9161 11.1333 9.25438 11.1333 9.67119C11.1333 10.088 10.7392 10.4263 10.2537 10.4263H6.31753C5.83196 10.4263 5.43788 10.088 5.43788 9.67119C5.43788 9.25438 5.83196 8.9161 6.31753 8.9161H10.2537ZM13.7507 2.36794L13.7508 3.68379C13.7508 4.69459 14.709 5.51814 15.8854 5.52116L17.2763 5.52015L13.7507 2.36794Z" fill="#4220AE"/>
</symbol>

<symbol id="icon-users" viewBox="0 0 20 20" >
<path fill-rule="evenodd" clip-rule="evenodd" d="M7.97952 12.5492C11.4049 12.5492 15.9592 12.9343 15.9592 16.2666C15.9592 19.7767 10.6525 19.9874 8.37619 20L7.54974 20C5.12265 19.9874 -0.000183105 19.778 -0.000183105 16.2876C-0.000183105 12.7735 5.30654 12.5626 7.58284 12.55L7.85632 12.5492C7.89895 12.5492 7.94004 12.5492 7.97952 12.5492ZM7.97952 14.1235C5.0586 14.1235 1.57642 14.4981 1.57642 16.2876C1.57642 17.7065 3.7311 18.4265 7.97952 18.4265C12.2279 18.4265 14.3826 17.6992 14.3826 16.2666C14.3826 14.8445 12.2279 14.1235 7.97952 14.1235ZM17.5597 12.0589C20.4039 12.484 20.9998 13.7991 20.9998 14.8265C20.9998 15.5916 20.6687 16.6275 19.089 17.2247C18.9975 17.2593 18.9029 17.2761 18.8094 17.2761C18.4909 17.2761 18.1914 17.082 18.0726 16.7682C17.9181 16.362 18.123 15.9065 18.5298 15.7533C19.4232 15.4153 19.4232 15.0029 19.4232 14.8265C19.4232 14.2315 18.718 13.8242 17.3274 13.6175C16.8965 13.5524 16.599 13.1515 16.6631 12.7222C16.7283 12.2919 17.1371 12.0033 17.5597 12.0589ZM7.97952 0C10.9551 0 13.3768 2.41811 13.3768 5.38931C13.3831 6.82086 12.827 8.17265 11.8138 9.19069C10.8027 10.2098 9.45206 10.7734 8.01525 10.7786H7.97952C5.0029 10.7786 2.58124 8.36052 2.58124 5.38931C2.58124 2.41811 5.0029 0 7.97952 0ZM15.4291 1.17946C17.4944 1.5174 18.9932 3.28166 18.9932 5.37336C18.989 7.47766 17.4156 9.28494 15.3324 9.57671C15.2956 9.58195 15.2588 9.58405 15.222 9.58405C14.8352 9.58405 14.4978 9.29963 14.4421 8.90606C14.3822 8.47575 14.6817 8.07694 15.1127 8.01711C16.4244 7.83345 17.4145 6.69681 17.4166 5.37231C17.4166 4.0562 16.4728 2.94581 15.1747 2.7338C14.7448 2.66244 14.4537 2.25837 14.5241 1.82911C14.5945 1.39986 15.0013 1.11124 15.4291 1.17946ZM7.97952 1.57429C5.87213 1.57429 4.15784 3.28606 4.15784 5.38931C4.15784 7.49256 5.87213 9.20434 7.97952 9.20434H8.0121C9.02533 9.20014 9.9797 8.80237 10.6955 8.08134C11.4123 7.36242 11.8043 6.4063 11.8002 5.39246C11.8002 3.28606 10.0859 1.57429 7.97952 1.57429Z" fill="#333342"/>
</symbol>

<symbol id="icon-logout" viewBox="0 0 20 20" >
<path fill-rule="evenodd" clip-rule="evenodd" d="M13.3901 5.368C13.3901 5.782 13.0627 6.118 12.6594 6.118C12.256 6.118 11.9287 5.782 11.9287 5.368V4.435C11.9287 2.816 10.6466 1.5 9.07025 1.5L4.32079 1.5C2.74348 1.5 1.46137 2.816 1.46137 4.435V15.565C1.46137 17.183 2.74348 18.5 4.32079 18.5H9.07902C10.6505 18.5 11.9287 17.188 11.9287 15.576V14.633C11.9287 14.219 12.256 13.883 12.6594 13.883C13.0627 13.883 13.3901 14.219 13.3901 14.633V15.576C13.3901 18.015 11.4562 20 9.07902 20H4.32079C1.93778 20 0 18.01 0 15.565V4.435C0 1.99 1.93778 0 4.32079 0L9.07025 0C11.4523 0 13.3901 1.99 13.3901 4.435V5.368ZM19.7932 10.5306L16.9406 13.4466C16.6542 13.7386 16.1924 13.7376 15.9079 13.4446C15.6234 13.1506 15.6234 12.6766 15.9099 12.3846L17.5088 10.749L6.81691 10.7496V9.2496L17.5088 9.249L15.9099 7.6156C15.7657 7.4696 15.6946 7.2766 15.6946 7.0846C15.6946 6.8936 15.7657 6.7016 15.9079 6.5556C16.1924 6.2626 16.6542 6.2606 16.9406 6.5536L19.7932 9.4686C20.0689 9.7496 20.0689 10.2496 19.7932 10.5306Z" fill="#333342"/>
</symbol>

<symbol id="icon-combined-shape" viewBox="0 0 20 20" >
<path fill-rule="evenodd" clip-rule="evenodd" d="M14.3591 0C17.733 0 20 2.36837 20 5.89302V14.107C20 17.6316 17.733 20 14.3591 20H5.64093C2.26698 20 0 17.6316 0 14.107V5.89302C0 2.36837 2.26698 0 5.64093 0H14.3591ZM14.3591 1.39535H5.64093C3.06233 1.39535 1.39535 3.16 1.39535 5.89302V14.107C1.39535 16.84 3.06233 18.6047 5.64093 18.6047H14.3591C16.9386 18.6047 18.6047 16.84 18.6047 14.107V5.89302C18.6047 3.16 16.9386 1.39535 14.3591 1.39535ZM5.69405 7.63023C6.07916 7.63023 6.39172 7.94279 6.39172 8.32791V14.7093C6.39172 15.0944 6.07916 15.407 5.69405 15.407C5.30893 15.407 4.99637 15.0944 4.99637 14.7093V8.32791C4.99637 7.94279 5.30893 7.63023 5.69405 7.63023ZM10.0354 4.57535C10.4206 4.57535 10.7331 4.88791 10.7331 5.27302V14.7084C10.7331 15.0935 10.4206 15.406 10.0354 15.406C9.65033 15.406 9.33777 15.0935 9.33777 14.7084V5.27302C9.33777 4.88791 9.65033 4.57535 10.0354 4.57535ZM14.3055 11.0023C14.6906 11.0023 15.0032 11.3149 15.0032 11.7V14.7084C15.0032 15.0935 14.6906 15.406 14.3055 15.406C13.9204 15.406 13.6078 15.0935 13.6078 14.7084V11.7C13.6078 11.3149 13.9204 11.0023 14.3055 11.0023Z" fill="#333342"/>
</symbol>

<symbol id="icon-arrow-down" viewBox="0 0 10 6" >
<path d="M1.99999 0.599998L4.99999 3.6L7.99999 0.599998L9.19999 1.2L4.99999 5.4L0.799988 1.2L1.99999 0.599998Z" fill="#414042"/>
</symbol>

<symbol id="icon-settings" viewBox="0 0 20 20" >
<path d="M11.82 20H8.18001C7.95194 20 7.73071 19.9221 7.55301 19.7792C7.37531 19.6362 7.25181 19.4368 7.20301 19.214L6.79601 17.33C6.25306 17.0921 5.73824 16.7946 5.26101 16.443L3.42401 17.028C3.20657 17.0973 2.97196 17.0902 2.75913 17.0078C2.5463 16.9254 2.36806 16.7727 2.25401 16.575L0.430006 13.424C0.317152 13.2261 0.274789 12.9958 0.309849 12.7708C0.344909 12.5457 0.455315 12.3392 0.623006 12.185L2.04801 10.885C1.9832 10.2961 1.9832 9.70189 2.04801 9.113L0.623006 7.816C0.455078 7.66177 0.344521 7.45507 0.309455 7.22978C0.27439 7.00449 0.316896 6.77397 0.430006 6.576L2.25001 3.423C2.36406 3.22532 2.5423 3.07259 2.75513 2.99019C2.96796 2.90778 3.20257 2.90066 3.42001 2.97L5.25701 3.555C5.50101 3.375 5.75501 3.207 6.01701 3.055C6.27001 2.913 6.53001 2.784 6.79601 2.669L7.20401 0.787C7.25258 0.564198 7.37584 0.364688 7.55335 0.221549C7.73087 0.0784098 7.95197 0.000239966 8.18001 0H11.82C12.048 0.000239966 12.2691 0.0784098 12.4467 0.221549C12.6242 0.364688 12.7474 0.564198 12.796 0.787L13.208 2.67C13.7506 2.9079 14.2651 3.20539 14.742 3.557L16.58 2.972C16.7973 2.90292 17.0317 2.91017 17.2443 2.99256C17.4569 3.07495 17.635 3.22753 17.749 3.425L19.569 6.578C19.801 6.985 19.721 7.5 19.376 7.817L17.951 9.117C18.0158 9.70589 18.0158 10.3001 17.951 10.889L19.376 12.189C19.721 12.507 19.801 13.021 19.569 13.428L17.749 16.581C17.635 16.7787 17.4567 16.9314 17.2439 17.0138C17.0311 17.0962 16.7964 17.1033 16.579 17.034L14.742 16.449C14.2651 16.8003 13.7506 17.0975 13.208 17.335L12.796 19.214C12.7472 19.4366 12.6239 19.6359 12.4464 19.7788C12.2689 19.9218 12.0479 19.9998 11.82 20ZM5.62001 14.229L6.44001 14.829C6.62501 14.965 6.81701 15.09 7.01701 15.204C7.20501 15.313 7.39701 15.411 7.59601 15.5L8.52901 15.909L8.98601 18H11.016L11.473 15.908L12.406 15.499C12.813 15.319 13.2 15.096 13.559 14.833L14.379 14.233L16.421 14.883L17.436 13.125L15.853 11.682L15.965 10.67C16.015 10.227 16.015 9.78 15.965 9.338L15.853 8.326L17.437 6.88L16.421 5.121L14.38 5.771L13.559 5.171C13.1998 4.90669 12.8133 4.68173 12.406 4.5L11.473 4.091L11.016 2H8.98601L8.52601 4.092L7.59601 4.5C7.18819 4.67861 6.80149 4.90198 6.44301 5.166L5.62201 5.766L3.58201 5.116L2.56501 6.88L4.14801 8.321L4.03601 9.334C3.98601 9.777 3.98601 10.224 4.03601 10.666L4.14801 11.678L2.56501 13.121L3.58001 14.879L5.62001 14.229ZM9.99601 14C8.93514 14 7.91772 13.5786 7.16758 12.8284C6.41743 12.0783 5.99601 11.0609 5.99601 10C5.99601 8.93913 6.41743 7.92172 7.16758 7.17157C7.91772 6.42143 8.93514 6 9.99601 6C11.0569 6 12.0743 6.42143 12.8244 7.17157C13.5746 7.92172 13.996 8.93913 13.996 10C13.996 11.0609 13.5746 12.0783 12.8244 12.8284C12.0743 13.5786 11.0569 14 9.99601 14ZM9.99601 8C9.60436 8.0004 9.22146 8.11577 8.89479 8.33181C8.56812 8.54785 8.31207 8.85505 8.15841 9.21528C8.00474 9.57552 7.96023 9.97295 8.03038 10.3583C8.10054 10.7436 8.28227 11.0998 8.55305 11.3828C8.82382 11.6657 9.17172 11.863 9.55357 11.95C9.93542 12.037 10.3344 12.01 10.7011 11.8724C11.0677 11.7347 11.3859 11.4924 11.6161 11.1756C11.8463 10.8587 11.9784 10.4812 11.996 10.09V10.49V10C11.996 9.46957 11.7853 8.96086 11.4102 8.58579C11.0351 8.21071 10.5264 8 9.99601 8Z" fill="#414042"/>
</symbol>

<symbol id="icon" viewBox="" >
</symbol>
</svg>