<svg aria-hidden="true" style="position: absolute; width: 0; height: 0; overflow: hidden;" fill="none" xmlns="http://www.w3.org/2000/svg" xmlns:xlink="http://www.w3.org/1999/xlink">

<symbol id="icon-call" viewBox="0 0 24 24" >
<path fill-rule="evenodd" clip-rule="evenodd" d="M3.28872 4.08785L3.36127 4.01204C5.28869 2.08444 6.54385 1.57351 7.88307 2.34362C8.2683 2.56515 8.62945 2.87523 9.12054 3.37401L10.6269 4.93603C11.4589 5.84393 11.6481 6.71478 11.3772 7.73465L11.3398 7.86967L11.2984 8.00392L11.097 8.59474C10.666 9.91972 10.846 10.6673 12.3795 12.2004C13.9742 13.7947 14.7186 13.9251 16.1457 13.4264L16.4001 13.338L16.7077 13.2381L16.8423 13.2007C17.9263 12.9115 18.842 13.1423 19.8132 14.1128L21.0269 15.2852L21.3842 15.6366C21.7803 16.0405 22.0421 16.3606 22.2355 16.6989C23.0008 18.0377 22.4893 19.2921 20.5063 21.2677L20.3177 21.4589C20.0216 21.7442 19.745 21.9486 19.3386 22.1416C18.6565 22.4655 17.8506 22.5876 16.9142 22.4573C14.6067 22.1364 11.6802 20.3158 7.97188 16.6085C7.67002 16.3067 7.3809 16.0107 7.10425 15.7205L6.56748 15.1476C1.53762 9.68285 1.09389 6.32588 3.15518 4.2205L3.28872 4.08785ZM7.90641 4.28093C7.58062 3.95973 7.34396 3.76394 7.13532 3.64396C6.67379 3.37856 6.1755 3.49074 5.25329 4.28448L4.96353 4.54334C4.91299 4.59 4.86129 4.63843 4.80838 4.68868L4.47611 5.01231L4.44617 5.04972L4.22091 5.27603C3.67656 5.83204 3.41871 6.51064 3.6409 7.67767C4.00551 9.59269 5.67442 12.1905 9.0324 15.5477C12.5313 19.0456 15.1972 20.7041 17.1208 20.9716C18.2422 21.1276 18.8142 20.856 19.3975 20.2584L19.8424 19.8095C20.051 19.5912 20.2292 19.3933 20.3797 19.2126L20.585 18.9539C21.1097 18.2551 21.1576 17.8358 20.9332 17.4433C20.8479 17.2939 20.7237 17.1302 20.5429 16.93L20.2977 16.671L20.1525 16.5258L18.6213 15.0472C18.1096 14.5753 17.7599 14.5084 17.229 14.65L17.0757 14.6941L16.4414 14.9094C14.6013 15.5037 13.2738 15.2155 11.3189 13.2612C9.29429 11.237 9.05685 9.88537 9.73522 7.93917L9.77874 7.81411L9.89908 7.45153L9.95823 7.22043C10.0631 6.71746 9.94337 6.36677 9.40269 5.82601C9.38043 5.80375 9.35555 5.77866 9.32847 5.7512L7.90641 4.28093Z" fill="white"/>
</symbol>

<symbol id="icon-message" viewBox="0 0 24 24" >
<path fill-rule="evenodd" clip-rule="evenodd" d="M11.7769 13.4647C11.1079 13.4647 10.4409 13.2437 9.88286 12.8017L5.39786 9.18574C5.07486 8.92574 5.02486 8.45274 5.28386 8.13074C5.54486 7.80974 6.01686 7.75874 6.33886 8.01774L10.8199 11.6297C11.3829 12.0757 12.1759 12.0757 12.7429 11.6257L17.1789 8.01974C17.5009 7.75674 17.9729 7.80674 18.2349 8.12874C18.4959 8.44974 18.4469 8.92174 18.1259 9.18374L13.6819 12.7957C13.1199 13.2417 12.4479 13.4647 11.7769 13.4647Z" fill="white"/>
<mask id="mask0_1_333" style="mask-type:luminance" maskUnits="userSpaceOnUse" x="1" y="2" width="22" height="20">
<path fill-rule="evenodd" clip-rule="evenodd" d="M1 2H22.4999V21.5H1V2Z" fill="white"/>
</mask>
<g mask="url(#mask0_1_333)">
<path fill-rule="evenodd" clip-rule="evenodd" d="M6.83888 20H16.6589C16.6609 19.998 16.6689 20 16.6749 20C17.8159 20 18.8279 19.592 19.6039 18.817C20.5049 17.92 20.9999 16.631 20.9999 15.188V8.32C20.9999 5.527 19.1739 3.5 16.6589 3.5H6.84088C4.32588 3.5 2.49988 5.527 2.49988 8.32V15.188C2.49988 16.631 2.99588 17.92 3.89588 18.817C4.67188 19.592 5.68488 20 6.82488 20H6.83888ZM6.82188 21.5C5.27888 21.5 3.90088 20.94 2.83688 19.88C1.65188 18.698 0.999878 17.032 0.999878 15.188V8.32C0.999878 4.717 3.51088 2 6.84088 2H16.6589C19.9889 2 22.4999 4.717 22.4999 8.32V15.188C22.4999 17.032 21.8479 18.698 20.6629 19.88C19.5999 20.939 18.2209 21.5 16.6749 21.5H16.6589H6.84088H6.82188Z" fill="white"/>
</g>
</symbol>

<symbol id="icon-location" viewBox="0 0 24 24" >
<path fill-rule="evenodd" clip-rule="evenodd" d="M8.25049 6.5C7.28549 6.5 6.50049 7.285 6.50049 8.251C6.50049 9.216 7.28549 10 8.25049 10C9.21549 10 10.0005 9.216 10.0005 8.251C10.0005 7.285 9.21549 6.5 8.25049 6.5ZM8.25049 11.5C6.45849 11.5 5.00049 10.043 5.00049 8.251C5.00049 6.458 6.45849 5 8.25049 5C10.0425 5 11.5005 6.458 11.5005 8.251C11.5005 10.043 10.0425 11.5 8.25049 11.5Z" fill="white"/>
<mask id="mask0_660_24" style="mask-type:luminance" maskUnits="userSpaceOnUse" x="0" y="0" width="17" height="20">
<path fill-rule="evenodd" clip-rule="evenodd" d="M0 0H16.4995V19.5H0V0Z" fill="white"/>
</mask>
<g mask="url(#mask0_660_24)">
<path fill-rule="evenodd" clip-rule="evenodd" d="M8.24951 1.5C4.52751 1.5 1.49951 4.557 1.49951 8.313C1.49951 13.092 7.12351 17.748 8.24951 17.996C9.37551 17.747 14.9995 13.091 14.9995 8.313C14.9995 4.557 11.9715 1.5 8.24951 1.5ZM8.24951 19.5C6.45551 19.5 -0.000488281 13.948 -0.000488281 8.313C-0.000488281 3.729 3.70051 0 8.24951 0C12.7985 0 16.4995 3.729 16.4995 8.313C16.4995 13.948 10.0435 19.5 8.24951 19.5Z" fill="white"/>
</g>
</symbol>

<symbol id="icon-send" viewBox="0 0 24 24" >
<path d="M15.8325 8.17463L10.109 13.9592L3.59944 9.88767C2.66675 9.30414 2.86077 7.88744 3.91572 7.57893L19.3712 3.05277C20.3373 2.76963 21.2326 3.67283 20.9456 4.642L16.3731 20.0868C16.0598 21.1432 14.6512 21.332 14.0732 20.3953L10.106 13.9602" stroke="white" stroke-width="1.5" stroke-linecap="round" stroke-linejoin="round"/>
</symbol>

<symbol id="icon-arrow-right" viewBox="0 0 17 15" >
<path d="M0 7.72571C0 7.34601 0.282154 7.03222 0.648229 6.98255L0.75 6.97571L15.75 6.97571C16.1642 6.97571 16.5 7.31149 16.5 7.72571C16.5 8.1054 16.2178 8.4192 15.8518 8.46886L15.75 8.47571L0.75 8.47571C0.335786 8.47571 0 8.13992 0 7.72571Z" fill="white"/>
<path d="M9.17101 2.23278C8.87749 1.94051 8.87646 1.46564 9.16872 1.17212C9.43442 0.905279 9.85103 0.880177 10.1451 1.0974L10.2294 1.16983L16.2794 7.19383C16.547 7.46032 16.5714 7.87843 16.3524 8.17251L16.2794 8.25673L10.2294 14.2817C9.93593 14.574 9.46105 14.573 9.16877 14.2795C8.90305 14.0127 8.87971 13.596 9.09817 13.3028L9.17096 13.2189L14.687 7.72501L9.17101 2.23278Z" fill="white"/>
</symbol>

<symbol id="icon-search" viewBox="0 0 24 24" >
<path fill-rule="evenodd" clip-rule="evenodd" d="M10.9985 3.50024C6.97315 3.50024 3.70996 6.76343 3.70996 10.7888C3.70996 14.8141 6.97315 18.0773 10.9985 18.0773C15.0238 18.0773 18.287 14.8141 18.287 10.7888C18.287 6.76343 15.0238 3.50024 10.9985 3.50024ZM2.20996 10.7888C2.20996 5.93501 6.14472 2.00024 10.9985 2.00024C15.8523 2.00024 19.787 5.93501 19.787 10.7888C19.787 15.6426 15.8523 19.5773 10.9985 19.5773C6.14472 19.5773 2.20996 15.6426 2.20996 10.7888Z" fill="black"/>
<path fill-rule="evenodd" clip-rule="evenodd" d="M16.4859 15.6477L22.1014 21.2486L21.0421 22.3106L15.4266 16.7097L16.4859 15.6477Z" fill="black"/>
</symbol>

<symbol id="icon" viewBox="" >
</symbol>
</svg>