<svg width="21" height="20" viewBox="0 0 21 20" fill="none" xmlns="http://www.w3.org/2000/svg">
<path fill-rule="evenodd" clip-rule="evenodd" d="M7.97952 12.5492C11.4049 12.5492 15.9592 12.9343 15.9592 16.2666C15.9592 19.7767 10.6525 19.9874 8.37619 20L7.54974 20C5.12265 19.9874 -0.000183105 19.778 -0.000183105 16.2876C-0.000183105 12.7735 5.30654 12.5626 7.58284 12.55L7.85632 12.5492C7.89895 12.5492 7.94004 12.5492 7.97952 12.5492ZM7.97952 14.1235C5.0586 14.1235 1.57642 14.4981 1.57642 16.2876C1.57642 17.7065 3.7311 18.4265 7.97952 18.4265C12.2279 18.4265 14.3826 17.6992 14.3826 16.2666C14.3826 14.8445 12.2279 14.1235 7.97952 14.1235ZM17.5597 12.0589C20.4039 12.484 20.9998 13.7991 20.9998 14.8265C20.9998 15.5916 20.6687 16.6275 19.089 17.2247C18.9975 17.2593 18.9029 17.2761 18.8094 17.2761C18.4909 17.2761 18.1914 17.082 18.0726 16.7682C17.9181 16.362 18.123 15.9065 18.5298 15.7533C19.4232 15.4153 19.4232 15.0029 19.4232 14.8265C19.4232 14.2315 18.718 13.8242 17.3274 13.6175C16.8965 13.5524 16.599 13.1515 16.6631 12.7222C16.7283 12.2919 17.1371 12.0033 17.5597 12.0589ZM7.97952 0C10.9551 0 13.3768 2.41811 13.3768 5.38931C13.3831 6.82086 12.827 8.17265 11.8138 9.19069C10.8027 10.2098 9.45206 10.7734 8.01525 10.7786H7.97952C5.0029 10.7786 2.58124 8.36052 2.58124 5.38931C2.58124 2.41811 5.0029 0 7.97952 0ZM15.4291 1.17946C17.4944 1.5174 18.9932 3.28166 18.9932 5.37336C18.989 7.47766 17.4156 9.28494 15.3324 9.57671C15.2956 9.58195 15.2588 9.58405 15.222 9.58405C14.8352 9.58405 14.4978 9.29963 14.4421 8.90606C14.3822 8.47575 14.6817 8.07694 15.1127 8.01711C16.4244 7.83345 17.4145 6.69681 17.4166 5.37231C17.4166 4.0562 16.4728 2.94581 15.1747 2.7338C14.7448 2.66244 14.4537 2.25837 14.5241 1.82911C14.5945 1.39986 15.0013 1.11124 15.4291 1.17946ZM7.97952 1.57429C5.87213 1.57429 4.15784 3.28606 4.15784 5.38931C4.15784 7.49256 5.87213 9.20434 7.97952 9.20434H8.0121C9.02533 9.20014 9.9797 8.80237 10.6955 8.08134C11.4123 7.36242 11.8043 6.4063 11.8002 5.39246C11.8002 3.28606 10.0859 1.57429 7.97952 1.57429Z" fill="#333342"/>
</svg>
